<svg width="2800" height="2800" viewBox="71.158 65.0131 2800 2800" fill="none" xmlns="http://www.w3.org/2000/svg">
<rect x="71.158" y="65.0131" width="2800" height="2800" fill="#8B1919"/>
<path d="M2314.35 1489.62C2315.31 1487 2319.01 1487 2319.97 1489.62L2349.9 1570.5C2350.21 1571.32 2350.85 1571.97 2351.67 1572.27L2432.56 1602.2C2435.17 1603.17 2435.17 1606.86 2432.56 1607.83L2351.67 1637.76C2350.85 1638.06 2350.21 1638.71 2349.9 1639.53L2319.97 1720.41C2319.01 1723.02 2315.31 1723.02 2314.35 1720.41L2284.42 1639.53C2284.11 1638.71 2283.46 1638.06 2282.64 1637.76L2201.76 1607.83C2199.15 1606.86 2199.15 1603.17 2201.76 1602.2L2282.64 1572.27C2283.46 1571.97 2284.11 1571.32 2284.42 1570.5L2314.35 1489.62Z" fill="#F0EC98"/>
<path d="M635.345 1489.62C636.311 1487 640.005 1487 640.972 1489.62L670.901 1570.5C671.205 1571.32 671.852 1571.97 672.673 1572.27L753.555 1602.2C756.167 1603.17 756.167 1606.86 753.555 1607.83L672.673 1637.76C671.852 1638.06 671.205 1638.71 670.901 1639.53L640.972 1720.41C640.005 1723.02 636.311 1723.02 635.345 1720.41L605.416 1639.53C605.112 1638.71 604.465 1638.06 603.644 1637.76L522.762 1607.83C520.15 1606.86 520.15 1603.17 522.762 1602.2L603.644 1572.27C604.465 1571.97 605.112 1571.32 605.416 1570.5L635.345 1489.62Z" fill="#F0EC98"/>
<path d="M782.345 1838.62C783.311 1836 787.006 1836 787.972 1838.62L810.068 1898.33C810.372 1899.15 811.02 1899.8 811.841 1900.1L871.555 1922.2C874.167 1923.17 874.167 1926.86 871.555 1927.83L811.841 1949.92C811.02 1950.23 810.372 1950.87 810.068 1951.7L787.972 2011.41C787.006 2014.02 783.311 2014.02 782.345 2011.41L760.249 1951.7C759.945 1950.87 759.297 1950.23 758.476 1949.92L698.762 1927.83C696.15 1926.86 696.15 1923.17 698.762 1922.2L758.476 1900.1C759.297 1899.8 759.945 1899.15 760.249 1898.33L782.345 1838.62Z" fill="#F0EC98"/>
<path d="M2172.34 1838.62C2173.31 1836 2177.01 1836 2177.97 1838.62L2200.07 1898.33C2200.37 1899.15 2201.02 1899.8 2201.84 1900.1L2261.55 1922.2C2264.17 1923.17 2264.17 1926.86 2261.55 1927.83L2201.84 1949.92C2201.02 1950.23 2200.37 1950.87 2200.07 1951.7L2177.97 2011.41C2177.01 2014.02 2173.31 2014.02 2172.34 2011.41L2150.25 1951.7C2149.94 1950.87 2149.3 1950.23 2148.48 1949.92L2088.76 1927.83C2086.15 1926.86 2086.15 1923.17 2088.76 1922.2L2148.48 1900.1C2149.3 1899.8 2149.94 1899.15 2150.25 1898.33L2172.34 1838.62Z" fill="#F0EC98"/>
<path d="M1309.55 601.869C1309.14 604.139 1301.78 655.699 1293.32 716.476L1277.77 827.077L1262.9 844.709C1254.71 854.46 1246.12 864.211 1243.8 866.482C1210.1 898.807 1181.59 959.584 1168.08 1027.31C1154.71 1094.76 1154.99 1171.84 1168.63 1239.02C1184.59 1316.76 1218.01 1379.95 1259.76 1410.8C1296.87 1438.32 1338.2 1439.39 1374.9 1413.74C1424.97 1378.88 1461.8 1302.74 1475.44 1205.63C1478.45 1184.93 1479.54 1168.9 1478.17 1168.9C1477.49 1168.9 1476.95 1152.47 1476.95 1132.43C1476.95 1096.9 1475.44 1075.79 1471.35 1050.28C1460.85 985.765 1436.97 919.645 1411.6 885.85C1398.5 868.085 1376.13 848.716 1359.21 840.434C1353.76 837.763 1352.53 836.16 1347.07 824.672L1340.79 811.849L1332.88 755.614C1328.52 724.624 1321.83 677.072 1318.01 649.956C1314.19 622.706 1310.92 599.999 1310.65 599.197C1310.51 598.529 1309.96 599.731 1309.55 601.869Z" fill="#F0EC98"/>
<path d="M1700.82 619.233C1700.27 622.172 1691.95 663.981 1682.26 712.068C1672.58 760.156 1662.07 812.651 1658.8 828.546L1653.07 857.532L1640.52 865.68C1610.5 885.049 1585.4 919.511 1572.58 958.515C1548.7 1031.71 1538.2 1088.48 1536.7 1153.13C1536.29 1171.43 1535.33 1186.26 1534.79 1186.26C1533.01 1186.26 1533.29 1192.54 1535.61 1212.31C1548.57 1322.37 1592.9 1409.47 1650.75 1439.25C1677.35 1452.88 1709 1452.88 1735.47 1439.25C1784.44 1414.14 1824.82 1346.55 1843.24 1258.79C1856.75 1195.21 1857.7 1117.74 1845.83 1052.69C1833.55 984.963 1805.86 922.984 1772.3 887.854C1766.57 881.976 1755.79 869.821 1748.43 861.005L1734.78 844.976L1718.82 731.437C1709.96 669.057 1702.59 617.096 1702.32 615.894C1702.04 614.825 1701.5 616.295 1700.82 619.233Z" fill="#F0EC98"/>
<path d="M876.684 1042.53C850.354 1054.15 828.799 1103.18 820.614 1170.23C817.34 1196.95 817.34 1250.64 820.614 1276.42C824.979 1310.22 831.937 1338.8 840.668 1359.24C844.351 1367.39 844.624 1369.39 843.806 1377.27C842.714 1388.49 845.306 1422.82 848.853 1443.39C870.408 1570.02 959.22 1695.85 1047.76 1725.37C1067.81 1732.05 1081.86 1733.65 1097.96 1730.98C1116.92 1727.78 1128.79 1721.77 1142.85 1708.01C1165.08 1686.1 1177.36 1654.44 1180.09 1611.16C1183.64 1553.86 1170.27 1491.75 1140.66 1428.03C1088 1314.36 993.462 1237.29 923.75 1250.78C918.156 1251.98 913.109 1252.38 912.563 1251.98C911.199 1250.51 902.331 1225 898.511 1211.24C883.641 1157.41 879.412 1095.83 887.461 1050.28L889.098 1040.66H885.006C882.686 1040.8 879.003 1041.6 876.684 1042.53Z" fill="#F0EC98"/>
<path d="M2105.99 1050.95C2115.54 1103.85 2107.77 1178.25 2086.89 1236.35C2082.12 1249.71 2080.75 1252.38 2078.57 1252.25C2077.07 1252.11 2069.98 1251.31 2062.88 1250.51C2042.01 1247.97 2022.36 1252.11 1996.72 1264.54C1951.42 1286.44 1904.63 1334.66 1870.53 1393.97C1829.87 1464.9 1809 1544.64 1813.36 1611.7C1815.96 1650.57 1826.87 1681.96 1845.15 1703.2C1912.41 1781.34 2051.83 1694.92 2118.27 1533.96C2138.46 1484.8 2148.69 1438.05 2149.37 1389.96C2149.78 1367.66 2150.06 1365.39 2153.19 1357.91C2167.52 1325.18 2175.16 1278.03 2175.16 1223.66C2175.16 1161.95 2165.06 1109.72 2146.51 1075.13C2135.6 1054.96 2119.63 1040.66 2107.77 1040.66H2104.22L2105.99 1050.95Z" fill="#F0EC98"/>
<path d="M1767.53 2303.22C1781.17 2306.16 1818 2305.36 1834.92 2301.75C1876.53 2293.07 1910.36 2276.64 1938.87 2251.26C2000.54 2196.49 2025.5 2114.74 2006.27 2030.99C1996.44 1988.65 1966.84 1941.63 1932.87 1914.38C1911.73 1897.55 1906.4 1895.01 1870.93 1885C1827.69 1872.71 1812.55 1866.7 1790.99 1853.2C1767.66 1838.64 1745.15 1817.01 1729.6 1794.03C1717.32 1776 1715.82 1772.66 1687.04 1701.2C1666.57 1650.17 1661.8 1639.62 1655.93 1631.74C1612.69 1572.96 1543.25 1540.64 1472.85 1546.51C1449.93 1548.38 1422.24 1556 1402.05 1565.88C1381.45 1575.9 1372.44 1582.31 1362.76 1593.53C1334.52 1626.13 1317.06 1656.58 1286.77 1725.51C1277.77 1746.21 1268.08 1766.38 1265.22 1770.25C1239.57 1805.78 1200.01 1835.97 1167.26 1844.79C1108.06 1860.55 1050.62 1891.14 1018.84 1923.46C1003.56 1939.09 995.78 1949.91 983.23 1973.15C965.358 2006.55 957.582 2037.94 957.719 2077.74C957.719 2115.55 965.768 2148.67 982.411 2180.73C1002.6 2219.33 1038.07 2254.6 1075.04 2272.9C1088.69 2279.58 1124.97 2293.87 1135.21 2296.54C1147.48 2299.75 1172.59 2300.28 1185 2297.74C1195.51 2295.47 1226.88 2285.72 1240.66 2280.38C1255.53 2274.5 1261.67 2271.3 1281.18 2259.27C1340.52 2222.41 1382.54 2204.91 1431.92 2196.49C1452.93 2193.02 1497.68 2193.29 1519.24 2197.29C1577.63 2207.85 1621.69 2226.28 1692.36 2269.96C1725.78 2290.66 1741.88 2297.74 1767.53 2303.22ZM1395.08 2013.85C1387.26 2021.66 1374.6 2021.66 1366.79 2013.85L1271.33 1918.39C1263.52 1910.58 1263.52 1897.92 1271.33 1890.11L1462.25 1699.19C1470.06 1691.38 1482.72 1691.38 1490.54 1699.19L1585.99 1794.65C1593.8 1802.46 1593.8 1815.12 1585.99 1822.93L1395.08 2013.85ZM1349.37 1801.36C1344.49 1806.24 1336.57 1806.24 1331.69 1801.36C1326.81 1796.48 1326.81 1788.57 1331.69 1783.69L1356.44 1758.94C1361.32 1754.06 1369.23 1754.06 1374.12 1758.94C1379 1763.82 1379 1771.73 1374.12 1776.61L1349.37 1801.36ZM1693.47 2165.17C1685.66 2172.98 1673 2172.98 1665.19 2165.17L1474.27 1974.25C1466.46 1966.44 1466.46 1953.78 1474.27 1945.97L1518.11 1902.13C1525.92 1894.32 1538.59 1894.32 1546.4 1902.13L1737.32 2093.04C1745.13 2100.86 1745.13 2113.52 1737.32 2121.33L1693.47 2165.17Z" fill="#F0EC98"/>
<circle cx="1472.16" cy="1505.01" r="1035" stroke="#F0EC98" stroke-width="30"/>
<path stroke="#F0EC98" stroke-width="2" d="M1093.82 2611.02C1160.72 2634.08 1230.51 2651.31 1302.64 2662.08L1202.44 2759.32C1181.18 2779.95 1145.65 2771.12 1136.53 2742.94L1093.82 2611.02ZM1626.63 2781.51C1613.21 2807.92 1576.74 2811.08 1558.97 2787.38L1474.82 2675.14C1548.27 2675.37 1620.38 2668.75 1690.49 2655.85L1626.63 2781.51ZM753.703 2425.81C809.505 2469.55 869.458 2508.4 932.964 2541.65L808.424 2600.21C781.633 2612.8 750.917 2592.94 751.411 2563.34L753.703 2425.81ZM2035.1 2664.37C2030.96 2693.68 1997.51 2708.5 1973.02 2691.86L1856.22 2612.54C1925.51 2588.88 1992.04 2558.87 2055.06 2523.17L2035.1 2664.37ZM491.763 2139.29C530.452 2198.94 574.452 2254.95 623.148 2306.61L487.251 2321.35C457.851 2324.53 435.275 2295.82 445.314 2268L491.763 2139.29ZM2383.63 2420.55C2389.19 2449.6 2362.4 2474.43 2333.86 2466.68L2196.08 2429.27C2254.06 2384.34 2307.8 2334.05 2356.53 2279.06L2383.63 2420.55ZM337.039 1782.21C354.154 1851.67 377.498 1918.86 406.487 1983.1L273.759 1952.9C244.953 1946.34 232.948 1911.89 251.44 1888.86L337.039 1782.21ZM2634.43 2076.4C2649.09 2102.05 2631.84 2134.19 2602.37 2136.16L2458.63 2145.76C2498.98 2084.46 2533.78 2019.04 2562.27 1950.16L2634.43 2076.4ZM308.218 1392.78C307.721 1398.17 307.258 1403.57 306.832 1408.98C301.551 1476.08 302.021 1542.3 307.826 1607.16L191.155 1534.78C166.064 1519.21 165.909 1482.76 190.867 1466.98L308.218 1392.78ZM2760.25 1669.2C2782.43 1688.68 2776.58 1724.66 2749.36 1736.11L2614.59 1792.81C2631.03 1728.41 2642.2 1661.72 2647.59 1593.2C2648.16 1585.97 2648.66 1578.75 2649.1 1571.54L2760.25 1669.2ZM407.981 1015.53C378.322 1080.82 354.42 1149.46 336.968 1220.84L248.431 1112.36C229.757 1089.48 241.466 1054.95 270.204 1048.15L407.981 1015.53ZM2747.41 1243.11C2774.73 1254.32 2780.89 1290.26 2758.87 1309.94L2647.78 1409.2C2641.87 1332.73 2628.55 1258.09 2608.49 1186.07L2747.41 1243.11ZM626.215 692.282C575.382 745.702 529.467 803.985 489.264 866.449L439.355 731.489C429.104 703.767 451.423 674.884 480.834 677.812L626.215 692.282ZM2597.31 844.382C2626.81 846.091 2644.34 878.109 2629.88 903.886L2555.56 1036.35C2525.03 965.666 2487.71 898.429 2444.36 835.521L2597.31 844.382ZM743.169 433.445C742.447 403.864 772.98 383.766 799.865 396.125L936.406 458.891C869.249 493.821 805.761 535.09 746.795 581.972L743.169 433.445ZM2326.27 516.256C2354.76 508.255 2381.77 532.882 2376.43 561.986L2348.49 714.226C2296.7 656.855 2239.25 604.539 2176.93 558.2L2326.27 516.256ZM1126.9 250.481C1135.8 222.233 1171.25 213.117 1192.67 233.566L1303.86 339.696C1227.15 351.076 1152.64 369.95 1081.17 395.599L1126.9 250.481ZM1963.73 294.25C1988.09 277.405 2021.67 291.952 2026.04 321.245L2049.06 475.45C1981.87 437.933 1910.47 406.777 1835.61 382.854L1963.73 294.25ZM1548.98 202.353C1566.56 178.504 1603.06 181.377 1616.69 207.682L1688.45 346.156C1649.44 339.07 1609.7 333.886 1569.32 330.708C1531.56 327.737 1494.08 326.585 1456.97 327.182L1548.98 202.353Z" fill="#F0EC98"/>
<circle cx="1477.36" cy="1501.16" r="1138.5" transform="rotate(9 1477.36 1501.16)" stroke="#F0EC98" stroke-width="73"/>
</svg>
